HIERARCHY
ROOT Hips
{
	OFFSET -0.0000 111.0000 0.0000
	CHANNELS 6 Xposition Yposition Zposition Xrotation Zrotation Yrotation
	JOINT RightUpperLeg
	{
		OFFSET -10.5000 -8.8000 0.0000
		CHANNELS 3 Xrotation Zrotation Yrotation
		JOINT RightLowerLeg
		{
			OFFSET -0.0000 -45.6000 0.0000
			CHANNELS 3 Xrotation Zrotation Yrotation
			JOINT RightFoot
			{
				OFFSET -0.0000 -46.7000 0.0000
				CHANNELS 3 Xrotation Zrotation Yrotation
				JOINT RightToe
				{
					OFFSET -0.0000 -8.0000 12.1000
					CHANNELS 3 Xrotation Zrotation Yrotation
					End Site
					{
						OFFSET -0.0000 0.0000 2.4200
					}
				}
			}
		}
	}
	JOINT LeftUpperLeg
	{
		OFFSET 10.5000 -8.8000 0.0000
		CHANNELS 3 Xrotation Zrotation Yrotation
		JOINT LeftLowerLeg
		{
			OFFSET -0.0000 -45.6000 0.0000
			CHANNELS 3 Xrotation Zrotation Yrotation
			JOINT LeftFoot
			{
				OFFSET -0.0000 -46.7000 0.0000
				CHANNELS 3 Xrotation Zrotation Yrotation
				JOINT LeftToe
				{
					OFFSET -0.0000 -8.0000 12.1000
					CHANNELS 3 Xrotation Zrotation Yrotation
					End Site
					{
						OFFSET -0.0000 0.0000 2.4200
					}
				}
			}
		}
	}
	JOINT Spine
	{
		OFFSET -0.0000 9.7000 0.0000
		CHANNELS 3 Xrotation Zrotation Yrotation
		JOINT Spine1
		{
			OFFSET -0.0000 11.2000 0.0000
			CHANNELS 3 Xrotation Zrotation Yrotation
			JOINT Spine2
			{
				OFFSET -0.0000 12.1000 0.0000
				CHANNELS 3 Xrotation Zrotation Yrotation
				JOINT Spine3
				{
					OFFSET -0.0000 11.7000 1.2000
					CHANNELS 3 Xrotation Zrotation Yrotation
					JOINT Neck
					{
						OFFSET -0.0000 12.0000 -1.2000
						CHANNELS 3 Xrotation Zrotation Yrotation
						JOINT Head
						{
							OFFSET -0.0000 10.0000 0.0000
							CHANNELS 3 Xrotation Zrotation Yrotation
							End Site
							{
								OFFSET -0.0000 20.0000 0.0000
							}
						}
					}
					JOINT RightShoulder
					{
						OFFSET -4.9000 4.0000 -1.2000
						CHANNELS 3 Xrotation Zrotation Yrotation
						JOINT RightUpperArm
						{
							OFFSET -15.6000 0.0000 0.0000
							CHANNELS 3 Xrotation Zrotation Yrotation
							JOINT RightLowerArm
							{
								OFFSET -25.9000 0.0000 0.0000
								CHANNELS 3 Xrotation Zrotation Yrotation
								JOINT RightHand
								{
									OFFSET -28.4000 0.0000 0.0000
									CHANNELS 3 Xrotation Zrotation Yrotation
									JOINT RightThumbFinger
									{
										OFFSET -3.4000 0.3000 4.2000
										CHANNELS 3 Xrotation Zrotation Yrotation
										JOINT RightThumbFinger1
										{
											OFFSET -3.5000 0.0000 3.5000
											CHANNELS 3 Xrotation Zrotation Yrotation
											JOINT RightThumbFinger2
											{
												OFFSET -2.5000 0.0000 2.4000
												CHANNELS 3 Xrotation Zrotation Yrotation
												End Site
												{
													OFFSET -2.1450 0.0000 2.0592
												}
											}
										}
									}
									JOINT RightIndexFinger
									{
										OFFSET -4.4000 0.7000 2.6000
										CHANNELS 3 Xrotation Zrotation Yrotation
										JOINT RightIndexFinger1
										{
											OFFSET -7.0000 -0.1000 1.4000
											CHANNELS 3 Xrotation Zrotation Yrotation
											JOINT RightIndexFinger2
											{
												OFFSET -5.0000 -0.2000 0.0000
												CHANNELS 3 Xrotation Zrotation Yrotation
												JOINT RightIndexFinger3
												{
													OFFSET -2.7000 -0.2000 0.0000
													CHANNELS 3 Xrotation Zrotation Yrotation
													End Site
													{
														OFFSET -2.3814 -0.1764 0.0000
													}
												}
											}
										}
									}
									JOINT RightMiddleFinger
									{
										OFFSET -4.6000 0.7000 1.0000
										CHANNELS 3 Xrotation Zrotation Yrotation
										JOINT RightMiddleFinger1
										{
											OFFSET -7.0000 -0.1000 0.4000
											CHANNELS 3 Xrotation Zrotation Yrotation
											JOINT RightMiddleFinger2
											{
												OFFSET -5.3000 -0.3000 0.0000
												CHANNELS 3 Xrotation Zrotation Yrotation
												JOINT RightMiddleFinger3
												{
													OFFSET -3.4000 -0.3000 0.0000
													CHANNELS 3 Xrotation Zrotation Yrotation
													End Site
													{
														OFFSET -2.9988 -0.2646 0.0000
													}
												}
											}
										}
									}
									JOINT RightRingFinger
									{
										OFFSET -4.5000 0.8000 -0.1000
										CHANNELS 3 Xrotation Zrotation Yrotation
										JOINT RightRingFinger1
										{
											OFFSET -6.3000 -0.1000 -0.7000
											CHANNELS 3 Xrotation Zrotation Yrotation
											JOINT RightRingFinger2
											{
												OFFSET -4.7000 -0.4000 0.0000
												CHANNELS 3 Xrotation Zrotation Yrotation
												JOINT RightRingFinger3
												{
													OFFSET -3.2000 -0.3000 0.0000
													CHANNELS 3 Xrotation Zrotation Yrotation
													End Site
													{
														OFFSET -2.8224 -0.2646 0.0000
													}
												}
											}
										}
									}
									JOINT RightPinkyFinger
									{
										OFFSET -4.3000 0.7000 -1.6000
										CHANNELS 3 Xrotation Zrotation Yrotation
										JOINT RightPinkyFinger1
										{
											OFFSET -5.6000 -0.1000 -1.5000
											CHANNELS 3 Xrotation Zrotation Yrotation
											JOINT RightPinkyFinger2
											{
												OFFSET -3.7000 -0.2000 0.0000
												CHANNELS 3 Xrotation Zrotation Yrotation
												JOINT RightPinkyFinger3
												{
													OFFSET -2.4000 -0.1000 0.0000
													CHANNELS 3 Xrotation Zrotation Yrotation
													End Site
													{
														OFFSET -2.1168 -0.0882 0.0000
													}
												}
											}
										}
									}
								}
							}
						}
					}
					JOINT LeftShoulder
					{
						OFFSET 4.9000 4.0000 -1.2000
						CHANNELS 3 Xrotation Zrotation Yrotation
						JOINT LeftUpperArm
						{
							OFFSET 15.6000 0.0000 0.0000
							CHANNELS 3 Xrotation Zrotation Yrotation
							JOINT LeftLowerArm
							{
								OFFSET 25.9000 0.0000 0.0000
								CHANNELS 3 Xrotation Zrotation Yrotation
								JOINT LeftHand
								{
									OFFSET 28.4000 0.0000 0.0000
									CHANNELS 3 Xrotation Zrotation Yrotation
									JOINT LeftThumbFinger
									{
										OFFSET 3.4000 0.3000 4.2000
										CHANNELS 3 Xrotation Zrotation Yrotation
										JOINT LeftThumbFinger1
										{
											OFFSET 3.5000 0.0000 3.5000
											CHANNELS 3 Xrotation Zrotation Yrotation
											JOINT LeftThumbFinger2
											{
												OFFSET 2.5000 0.0000 2.5000
												CHANNELS 3 Xrotation Zrotation Yrotation
												End Site
												{
													OFFSET 2.1450 0.0000 2.1450
												}
											}
										}
									}
									JOINT LeftIndexFinger
									{
										OFFSET 4.4000 0.7000 2.6000
										CHANNELS 3 Xrotation Zrotation Yrotation
										JOINT LeftIndexFinger1
										{
											OFFSET 7.0000 -0.1000 1.4000
											CHANNELS 3 Xrotation Zrotation Yrotation
											JOINT LeftIndexFinger2
											{
												OFFSET 5.0000 -0.2000 0.0000
												CHANNELS 3 Xrotation Zrotation Yrotation
												JOINT LeftIndexFinger3
												{
													OFFSET 2.7000 -0.2000 0.0000
													CHANNELS 3 Xrotation Zrotation Yrotation
													End Site
													{
														OFFSET 2.3814 -0.1764 0.0000
													}
												}
											}
										}
									}
									JOINT LeftMiddleFinger
									{
										OFFSET 4.6000 0.7000 1.0000
										CHANNELS 3 Xrotation Zrotation Yrotation
										JOINT LeftMiddleFinger1
										{
											OFFSET 7.0000 -0.1000 0.4000
											CHANNELS 3 Xrotation Zrotation Yrotation
											JOINT LeftMiddleFinger2
											{
												OFFSET 5.3000 -0.3000 0.0000
												CHANNELS 3 Xrotation Zrotation Yrotation
												JOINT LeftMiddleFinger3
												{
													OFFSET 3.4000 -0.3000 0.0000
													CHANNELS 3 Xrotation Zrotation Yrotation
													End Site
													{
														OFFSET 2.9988 -0.2646 0.0000
													}
												}
											}
										}
									}
									JOINT LeftRingFinger
									{
										OFFSET 4.5000 0.8000 -0.1000
										CHANNELS 3 Xrotation Zrotation Yrotation
										JOINT LeftRingFinger1
										{
											OFFSET 6.3000 -0.1000 -0.7000
											CHANNELS 3 Xrotation Zrotation Yrotation
											JOINT LeftRingFinger2
											{
												OFFSET 4.7000 -0.3000 0.0000
												CHANNELS 3 Xrotation Zrotation Yrotation
												JOINT LeftRingFinger3
												{
													OFFSET 3.2000 -0.2000 0.0000
													CHANNELS 3 Xrotation Zrotation Yrotation
													End Site
													{
														OFFSET 2.8224 -0.1764 0.0000
													}
												}
											}
										}
									}
									JOINT LeftPinkyFinger
									{
										OFFSET 4.3000 0.7000 -1.6000
										CHANNELS 3 Xrotation Zrotation Yrotation
										JOINT LeftPinkyFinger1
										{
											OFFSET 5.6000 -0.1000 -1.5000
											CHANNELS 3 Xrotation Zrotation Yrotation
											JOINT LeftPinkyFinger2
											{
												OFFSET 3.7000 -0.2000 0.1000
												CHANNELS 3 Xrotation Zrotation Yrotation
												JOINT LeftPinkyFinger3
												{
													OFFSET 2.4000 -0.1000 -0.1000
													CHANNELS 3 Xrotation Zrotation Yrotation
													End Site
													{
														OFFSET 2.1168 -0.0882 -0.0882
													}
												}
											}
										}
									}
								}
							}
						}
					}
				}
			}
		}
	}
}
MOTION
Frames: 5
Frame Time: 0.010417
-0.00 111.00 0.00 0.00 0.00 0.00 0.00 -0.00 0.00 0.00 -0.00 0.00 0.00 -0.00 0.00 0.00 -0.00 0.00 0.00 -0.00 0.00 0.00 -0.00 0.00 0.00 -0.00 0.00 0.00 -0.00 0.00 0.00 -0.00 0.00 0.00 -0.00 0.00 0.00 -0.00 0.00 0.00 -0.00 0.00 0.00 -0.00 0.00 0.00 -0.00 0.00 0.00 -0.00 0.00 0.00 -0.00 0.00 0.00 -0.00 0.00 0.00 -0.00 0.00 0.00 -0.00 0.00 0.00 -0.00 0.00 0.00 -0.00 0.00 0.00 -0.00 0.00 0.00 -0.00 0.00 0.00 -0.00 0.00 0.00 -0.00 0.00 0.00 -0.00 0.00 0.00 -0.00 0.00 0.00 -0.00 0.00 0.00 -0.00 0.00 0.00 -0.00 0.00 0.00 -0.00 0.00 0.00 -0.00 0.00 0.00 -0.00 0.00 0.00 -0.00 0.00 0.00 -0.00 0.00 0.00 -0.00 0.00 0.00 -0.00 0.00 0.00 -0.00 0.00 0.00 -0.00 0.00 0.00 -0.00 0.00 0.00 -0.00 0.00 0.00 -0.00 0.00 0.00 -0.00 0.00 0.00 -0.00 0.00 0.00 -0.00 0.00 0.00 -0.00 0.00 0.00 -0.00 0.00 0.00 -0.00 0.00 0.00 -0.00 0.00 0.00 -0.00 0.00 0.00 -0.00 0.00 0.00 -0.00 0.00 0.00 -0.00 0.00 0.00 -0.00 0.00 0.00 -0.00 0.00 0.00 -0.00 0.00 0.00 -0.00 0.00 0.00 -0.00 0.00 0.00 -0.00 0.00 0.00 -0.00 0.00 
1.09 105.78 8.42 26.50 -4.16 21.96 -51.02 -2.24 12.95 37.55 -2.60 7.08 -13.78 2.12 -15.46 0.00 0.00 0.00 -41.82 7.99 -4.28 21.20 -19.62 30.76 -6.63 0.80 3.77 0.00 0.00 -0.00 5.59 5.40 3.39 6.38 3.42 -0.06 6.88 3.70 -0.05 6.88 3.68 -0.04 -14.57 -1.33 -11.66 -12.44 -0.94 -9.96 -11.51 -2.97 -3.48 -37.45 43.87 9.00 7.86 1.47 20.20 0.87 -63.49 52.84 34.83 -0.01 -0.00 7.21 13.27 -28.55 -5.61 26.99 -35.85 -0.00 -0.00 0.00 0.00 1.76 2.00 -0.61 17.22 -0.20 -0.31 8.96 -0.14 -0.00 -0.00 0.00 0.01 1.37 0.01 -0.01 14.74 -0.00 -0.00 7.59 -0.00 -0.00 -0.00 0.00 0.00 -10.00 -1.96 0.00 -0.00 0.00 0.00 -0.00 0.00 -0.00 -0.00 0.00 0.00 6.07 -3.98 2.71 34.20 1.77 1.06 19.10 1.20 -6.55 -3.82 -1.24 47.41 -71.84 -56.94 9.22 -7.41 -24.72 -2.53 13.50 -4.29 27.57 -0.01 0.01 10.44 -7.53 4.79 14.71 -12.80 3.67 -0.00 0.00 0.00 0.00 -1.88 -2.00 -0.65 -17.91 0.21 -0.32 -9.33 0.17 -0.00 0.00 0.00 0.00 -5.57 0.01 0.00 -32.83 -0.00 -0.00 -18.19 -0.00 -0.00 0.00 0.00 -0.00 -4.41 2.00 1.11 -29.00 -0.61 0.47 -15.81 -0.43 -0.00 0.00 0.00 -0.00 -13.82 3.88 4.68 -50.32 -4.34 1.03 -30.60 -2.01 
1.32 105.85 8.50 26.25 -3.98 21.84 -50.61 -2.44 12.97 37.41 -2.48 7.10 -13.57 2.21 -15.23 0.00 -0.00 0.00 -41.40 7.96 -4.52 21.17 -19.82 30.86 -6.66 0.82 3.85 0.00 0.00 0.00 5.59 5.41 3.37 6.37 3.41 -0.04 6.88 3.69 -0.02 6.88 3.70 -0.03 -14.45 -1.35 -12.04 -12.34 -0.96 -10.27 -11.38 -3.09 -3.40 -37.23 43.80 9.02 7.81 1.51 20.07 0.75 -63.51 52.98 34.71 -0.01 -0.01 7.11 13.29 -28.55 -5.80 26.94 -35.87 0.00 -0.00 -0.00 0.00 1.71 1.99 -0.59 16.96 -0.19 -0.31 8.82 -0.14 0.00 -0.00 -0.00 -0.00 1.31 -0.00 0.01 14.35 0.00 -0.01 7.38 0.00 0.00 -0.00 -0.00 0.00 -10.00 -1.97 -0.00 -0.00 0.00 -0.00 -0.00 0.00 0.00 -0.00 -0.00 0.00 6.02 -3.98 2.70 34.08 1.75 1.05 19.03 1.19 -6.44 -3.83 -1.12 46.91 -72.03 -56.39 9.61 -7.43 -24.80 -2.72 13.30 -4.29 27.40 -0.00 -0.00 10.39 -7.58 4.66 14.68 -12.81 3.49 0.00 0.00 0.00 0.00 -1.82 -2.00 -0.64 -17.60 0.22 -0.30 -9.17 0.15 0.00 0.00 0.00 -0.01 -5.59 -0.00 -0.00 -32.89 0.00 0.01 -18.22 -0.01 0.00 0.00 0.00 -0.00 -4.40 1.99 1.11 -28.98 -0.61 0.47 -15.80 -0.43 0.00 0.00 0.00 -0.00 -13.84 3.88 4.68 -50.34 -4.35 1.03 -30.63 -2.01 
1.54 105.93 8.55 25.95 -3.82 21.66 -50.16 -2.58 12.99 37.23 -2.36 7.10 -13.29 2.33 -14.96 0.00 -0.00 -0.00 -41.00 8.00 -4.81 21.23 -20.02 30.81 -6.66 0.83 4.02 0.00 -0.00 0.00 5.59 5.43 3.39 6.37 3.41 -0.01 6.88 3.67 0.00 6.89 3.68 0.00 -14.33 -1.34 -12.43 -12.22 -0.94 -10.61 -11.19 -3.14 -3.32 -37.02 43.71 9.24 7.67 1.66 19.50 0.34 -63.63 53.61 34.71 -0.00 -0.01 7.11 13.29 -28.55 -5.80 26.93 -35.88 0.00 -0.00 0.00 -0.01 1.72 1.99 -0.59 16.96 -0.19 -0.30 8.81 -0.15 0.00 -0.00 0.00 -0.00 1.31 -0.00 0.00 14.36 0.00 -0.01 7.38 -0.00 0.00 -0.00 0.00 0.00 -10.00 -1.97 -0.00 -0.00 0.00 -0.00 -0.00 0.00 0.00 -0.00 0.00 -0.01 6.03 -3.98 2.70 34.08 1.76 1.05 19.03 1.18 -6.30 -3.83 -1.02 46.27 -72.20 -55.69 9.96 -7.51 -24.91 -2.79 13.09 -4.29 27.40 -0.01 0.01 10.40 -7.58 4.66 14.68 -12.80 3.49 0.00 -0.00 0.00 0.00 -1.82 -2.00 -0.64 -17.61 0.22 -0.30 -9.17 0.15 0.00 -0.00 0.00 0.00 -5.59 0.00 -0.01 -32.89 0.01 -0.00 -18.23 -0.01 0.00 -0.00 0.00 -0.00 -4.39 2.00 1.10 -28.97 -0.61 0.48 -15.80 -0.43 0.00 -0.00 0.00 -0.00 -13.84 3.89 4.69 -50.35 -4.36 1.03 -30.62 -2.01 
1.77 106.01 8.55 25.65 -3.67 21.46 -49.76 -2.72 12.98 37.04 -2.23 7.07 -12.96 2.47 -14.62 -0.00 0.00 0.00 -40.69 8.03 -5.26 21.37 -20.19 30.60 -6.64 0.77 4.22 0.00 -0.00 0.00 5.60 5.48 3.43 6.37 3.40 0.01 6.88 3.66 0.03 6.88 3.67 0.04 -14.20 -1.33 -12.82 -12.11 -0.94 -10.93 -11.01 -3.20 -3.25 -36.87 43.63 9.46 7.50 1.88 18.76 -0.26 -63.80 54.51 34.51 -0.00 -0.01 6.94 13.40 -28.63 -6.27 26.95 -35.91 0.00 0.00 -0.00 -0.01 1.62 2.00 -0.58 16.40 -0.18 -0.29 8.50 -0.13 0.00 0.00 -0.00 -0.01 1.27 -0.00 0.02 14.05 0.00 -0.01 7.21 0.00 0.00 0.00 -0.00 -0.01 -10.01 -1.97 0.00 0.00 0.00 0.00 0.00 0.00 0.00 0.00 -0.00 -0.01 6.06 -3.98 2.71 34.18 1.77 1.05 19.08 1.19 -6.15 -3.83 -0.92 45.34 -72.43 -54.75 10.35 -7.68 -25.02 -2.82 12.81 -4.23 27.12 -0.01 0.01 10.30 -7.61 4.49 14.61 -12.77 3.25 -0.00 0.00 -0.00 0.01 -1.69 -2.00 -0.61 -16.86 0.20 -0.29 -8.76 0.14 -0.00 0.00 -0.00 -0.00 -5.53 0.00 0.01 -32.69 -0.00 -0.01 -18.11 0.00 -0.00 0.00 -0.00 0.01 -4.34 2.00 1.08 -28.80 -0.60 0.47 -15.68 -0.42 -0.00 0.00 -0.00 0.00 -13.73 3.89 4.68 -50.18 -4.33 1.03 -30.49 -2.03 
